<svg width="128" height="29" viewBox="0 0 128 29" fill="none" xmlns="http://www.w3.org/2000/svg">
<path d="M0.81108 28.1364V5.63636H5.28551V8.38494H5.48793C5.68679 7.9446 5.97443 7.49716 6.35085 7.04261C6.73438 6.58097 7.23153 6.19744 7.84233 5.89205C8.46023 5.57955 9.22727 5.4233 10.1435 5.4233C11.3366 5.4233 12.4375 5.7358 13.446 6.3608C14.4545 6.97869 15.2607 7.91264 15.8643 9.16264C16.468 10.4055 16.7699 11.9645 16.7699 13.8395C16.7699 15.6648 16.4751 17.206 15.8857 18.4631C15.3033 19.7131 14.5078 20.6612 13.4993 21.3075C12.4979 21.9467 11.3757 22.2663 10.1328 22.2663C9.25213 22.2663 8.50284 22.1207 7.88494 21.8295C7.27415 21.5384 6.77344 21.1726 6.38281 20.7322C5.99219 20.2848 5.69389 19.8338 5.48793 19.3793H5.34943V28.1364H0.81108ZM5.25355 13.8182C5.25355 14.7912 5.38849 15.6399 5.65838 16.3643C5.92827 17.0888 6.31889 17.6534 6.83026 18.0582C7.34162 18.456 7.96307 18.6548 8.6946 18.6548C9.43324 18.6548 10.0582 18.4524 10.5696 18.0476C11.081 17.6357 11.468 17.0675 11.7308 16.343C12.0007 15.6115 12.1357 14.7699 12.1357 13.8182C12.1357 12.8736 12.0043 12.0426 11.7415 11.3253C11.4787 10.608 11.0916 10.0469 10.5803 9.64204C10.0689 9.23722 9.44034 9.0348 8.6946 9.0348C7.95597 9.0348 7.33097 9.23011 6.8196 9.62074C6.31534 10.0114 5.92827 10.5653 5.65838 11.2827C5.38849 12 5.25355 12.8452 5.25355 13.8182ZM27.1889 22.3196C25.5341 22.3196 24.103 21.968 22.8956 21.2649C21.6953 20.5547 20.7685 19.5675 20.1151 18.3033C19.4616 17.032 19.1349 15.5582 19.1349 13.8821C19.1349 12.1918 19.4616 10.7145 20.1151 9.45028C20.7685 8.17898 21.6953 7.19176 22.8956 6.48864C24.103 5.77841 25.5341 5.4233 27.1889 5.4233C28.8438 5.4233 30.2713 5.77841 31.4716 6.48864C32.679 7.19176 33.6094 8.17898 34.2628 9.45028C34.9162 10.7145 35.2429 12.1918 35.2429 13.8821C35.2429 15.5582 34.9162 17.032 34.2628 18.3033C33.6094 19.5675 32.679 20.5547 31.4716 21.2649C30.2713 21.968 28.8438 22.3196 27.1889 22.3196ZM27.2102 18.804C27.9631 18.804 28.5916 18.5909 29.0959 18.1648C29.6001 17.7315 29.9801 17.142 30.2358 16.3963C30.4986 15.6506 30.63 14.8018 30.63 13.8501C30.63 12.8984 30.4986 12.0497 30.2358 11.304C29.9801 10.5582 29.6001 9.96875 29.0959 9.53551C28.5916 9.10227 27.9631 8.88565 27.2102 8.88565C26.4503 8.88565 25.8111 9.10227 25.2926 9.53551C24.7813 9.96875 24.3942 10.5582 24.1314 11.304C23.8757 12.0497 23.7479 12.8984 23.7479 13.8501C23.7479 14.8018 23.8757 15.6506 24.1314 16.3963C24.3942 17.142 24.7813 17.7315 25.2926 18.1648C25.8111 18.5909 26.4503 18.804 27.2102 18.804ZM44.2237 22.2663C42.9808 22.2663 41.8551 21.9467 40.8466 21.3075C39.8452 20.6612 39.0497 19.7131 38.4602 18.4631C37.8778 17.206 37.5866 15.6648 37.5866 13.8395C37.5866 11.9645 37.8885 10.4055 38.4922 9.16264C39.0959 7.91264 39.8984 6.97869 40.8999 6.3608C41.9084 5.7358 43.0128 5.4233 44.2131 5.4233C45.1293 5.4233 45.8928 5.57955 46.5036 5.89205C47.1214 6.19744 47.6186 6.58097 47.995 7.04261C48.3786 7.49716 48.6697 7.9446 48.8686 8.38494H49.0071V0.181818H53.5348V22H49.0604V19.3793H48.8686C48.6555 19.8338 48.3537 20.2848 47.9631 20.7322C47.5795 21.1726 47.0788 21.5384 46.4609 21.8295C45.8501 22.1207 45.1044 22.2663 44.2237 22.2663ZM45.6619 18.6548C46.3935 18.6548 47.0114 18.456 47.5156 18.0582C48.027 17.6534 48.4176 17.0888 48.6875 16.3643C48.9645 15.6399 49.103 14.7912 49.103 13.8182C49.103 12.8452 48.968 12 48.6982 11.2827C48.4283 10.5653 48.0376 10.0114 47.5263 9.62074C47.0149 9.23011 46.3935 9.0348 45.6619 9.0348C44.9162 9.0348 44.2876 9.23722 43.7763 9.64204C43.2649 10.0469 42.8778 10.608 42.6151 11.3253C42.3523 12.0426 42.2209 12.8736 42.2209 13.8182C42.2209 14.7699 42.3523 15.6115 42.6151 16.343C42.8849 17.0675 43.272 17.6357 43.7763 18.0476C44.2876 18.4524 44.9162 18.6548 45.6619 18.6548ZM81.1804 22.3089C80.1364 22.3089 79.206 22.1278 78.3892 21.7656C77.5724 21.3963 76.9261 20.853 76.4503 20.1357C75.9815 19.4112 75.7472 18.5092 75.7472 17.4297C75.7472 16.5206 75.9141 15.7571 76.2479 15.1392C76.5817 14.5213 77.0362 14.0241 77.6115 13.6477C78.1868 13.2713 78.8402 12.9872 79.5717 12.7955C80.3104 12.6037 81.0845 12.4688 81.8942 12.3906C82.8459 12.2912 83.6129 12.1989 84.1953 12.1136C84.7777 12.0213 85.2003 11.8864 85.4631 11.7088C85.7259 11.5312 85.8572 11.2685 85.8572 10.9205V10.8565C85.8572 10.1818 85.6442 9.6598 85.218 9.29048C84.799 8.92116 84.2024 8.73651 83.4283 8.73651C82.6115 8.73651 81.9616 8.91761 81.4787 9.27983C80.9957 9.63494 80.6761 10.0824 80.5199 10.6222L76.3224 10.2812C76.5355 9.28693 76.9545 8.42756 77.5795 7.70312C78.2045 6.97159 79.0107 6.41051 79.9979 6.01989C80.9922 5.62216 82.1428 5.4233 83.4496 5.4233C84.3587 5.4233 85.2287 5.52983 86.0597 5.7429C86.8977 5.95597 87.6399 6.28622 88.2862 6.73366C88.9396 7.18111 89.4545 7.75639 89.831 8.45952C90.2074 9.15554 90.3956 9.99006 90.3956 10.9631V22H86.0916V19.7308H85.9638C85.701 20.2422 85.3494 20.6932 84.9091 21.0838C84.4688 21.4673 83.9396 21.7692 83.3217 21.9893C82.7038 22.2024 81.9901 22.3089 81.1804 22.3089ZM82.4801 19.1768C83.1477 19.1768 83.7372 19.0455 84.2486 18.7827C84.7599 18.5128 85.1612 18.1506 85.4524 17.696C85.7436 17.2415 85.8892 16.7266 85.8892 16.1513V14.4148C85.7472 14.5071 85.5518 14.5923 85.3033 14.6705C85.0618 14.7415 84.7884 14.8089 84.483 14.8729C84.1776 14.9297 83.8722 14.983 83.5668 15.0327C83.2614 15.0753 82.9844 15.1143 82.7358 15.1499C82.2031 15.228 81.7379 15.3523 81.3402 15.5227C80.9425 15.6932 80.6335 15.924 80.4134 16.2152C80.1932 16.4993 80.0831 16.8544 80.0831 17.2805C80.0831 17.8984 80.3068 18.3707 80.7543 18.6974C81.2088 19.017 81.7841 19.1768 82.4801 19.1768ZM107.532 10.3026L103.377 10.5582C103.306 10.2031 103.153 9.88352 102.919 9.59943C102.684 9.30824 102.375 9.07741 101.992 8.90696C101.615 8.7294 101.164 8.64062 100.639 8.64062C99.9357 8.64062 99.3427 8.78977 98.8597 9.08807C98.3768 9.37926 98.1353 9.76989 98.1353 10.2599C98.1353 10.6506 98.2915 10.9808 98.604 11.2507C98.9165 11.5206 99.4528 11.7372 100.213 11.9006L103.174 12.4972C104.765 12.8239 105.951 13.3494 106.733 14.0739C107.514 14.7983 107.904 15.75 107.904 16.929C107.904 18.0014 107.588 18.9425 106.956 19.7521C106.331 20.5618 105.472 21.1939 104.378 21.6484C103.292 22.0959 102.038 22.3196 100.618 22.3196C98.4513 22.3196 96.7255 21.8686 95.44 20.9666C94.1616 20.0575 93.4123 18.8217 93.1921 17.2592L97.6559 17.0249C97.7908 17.6854 98.1175 18.1896 98.636 18.5376C99.1545 18.8786 99.8185 19.049 100.628 19.049C101.424 19.049 102.063 18.8963 102.546 18.5909C103.036 18.2784 103.284 17.8771 103.292 17.3871C103.284 16.9751 103.11 16.6378 102.77 16.375C102.429 16.1051 101.903 15.8991 101.193 15.7571L98.359 15.1925C96.761 14.8729 95.5714 14.3189 94.7901 13.5305C94.016 12.7422 93.6289 11.7372 93.6289 10.5156C93.6289 9.46449 93.913 8.55895 94.4812 7.79901C95.0565 7.03906 95.8626 6.45313 96.8995 6.04119C97.9435 5.62926 99.1651 5.4233 100.564 5.4233C102.631 5.4233 104.257 5.86009 105.444 6.73366C106.637 7.60724 107.333 8.79687 107.532 10.3026ZM119.466 5.63636V9.04545H109.612V5.63636H119.466ZM111.849 1.71591H116.387V16.9716C116.387 17.3906 116.451 17.7173 116.579 17.9517C116.707 18.179 116.884 18.3388 117.112 18.4311C117.346 18.5234 117.616 18.5696 117.921 18.5696C118.134 18.5696 118.347 18.5518 118.561 18.5163C118.774 18.4737 118.937 18.4418 119.051 18.4205L119.764 21.7976C119.537 21.8686 119.218 21.9503 118.806 22.0426C118.394 22.142 117.893 22.2024 117.303 22.2237C116.21 22.2663 115.251 22.1207 114.427 21.7869C113.61 21.4531 112.975 20.9347 112.52 20.2315C112.066 19.5284 111.842 18.6406 111.849 17.5682V1.71591Z" fill="black"/>
<path d="M56.1289 1.08203C56.793 1.17969 57.3789 1.24805 57.8867 1.28711C58.4141 1.32617 58.8535 1.36523 59.2051 1.4043C59.6152 1.44336 59.9668 1.46289 60.2598 1.46289H61.4023C62.1641 1.46289 63.4238 1.43359 65.1816 1.375C64.752 1.51172 64.3906 1.70703 64.0977 1.96094C63.8242 2.21484 63.5996 2.47852 63.4238 2.75195C63.209 3.06445 63.0527 3.38672 62.9551 3.71875C62.8379 4.12891 62.7305 4.67578 62.6328 5.35938C62.5352 5.96484 62.4375 6.75586 62.3398 7.73242C62.2617 8.70898 62.1836 9.92969 62.1055 11.3945C62.9453 10.4375 63.6777 9.58789 64.3027 8.8457C64.9473 8.10352 65.5039 7.44922 65.9727 6.88281C66.4414 6.31641 66.832 5.82812 67.1445 5.41797C67.4766 5.00781 67.75 4.65625 67.9648 4.36328C68.4727 3.69922 68.7656 3.25 68.8438 3.01562C68.8633 2.87891 68.8535 2.71289 68.8145 2.51758C68.7754 2.36133 68.7168 2.17578 68.6387 1.96094C68.5605 1.72656 68.4434 1.47266 68.2871 1.19922C69.0684 1.23828 69.7324 1.26758 70.2793 1.28711C70.8457 1.30664 71.3145 1.32617 71.6855 1.3457C72.1152 1.36523 72.4668 1.375 72.7402 1.375H73.9707C74.4199 1.375 75.0059 1.375 75.7285 1.375C76.4512 1.35547 77.3594 1.33594 78.4531 1.31641C77.7305 1.49219 77.0469 1.72656 76.4023 2.01953C75.7578 2.3125 75.1816 2.5957 74.6738 2.86914C74.0879 3.20117 73.541 3.54297 73.0332 3.89453C72.5254 4.28516 71.959 4.74414 71.334 5.27148C70.8066 5.7207 70.1914 6.27734 69.4883 6.94141C68.7852 7.58594 68.0234 8.33789 67.2031 9.19727C68.082 10.916 68.8438 12.332 69.4883 13.4453C70.1523 14.5391 70.709 15.418 71.1582 16.082C71.666 16.8633 72.0957 17.459 72.4473 17.8691C72.7988 18.2402 73.209 18.6211 73.6777 19.0117C74.0684 19.3438 74.5566 19.7148 75.1426 20.125C75.7285 20.5156 76.4023 20.8965 77.1641 21.2676L68.8145 21.6777C68.9316 21.5215 69 21.3359 69.0195 21.1211C69.0586 20.8867 69.0781 20.6719 69.0781 20.4766C69.0781 20.2617 69.0586 20.0273 69.0195 19.7734C68.9414 19.4609 68.7363 18.9531 68.4043 18.25C68.1309 17.6445 67.7109 16.7949 67.1445 15.7012C66.5781 14.5879 65.7969 13.123 64.8008 11.3066L62.3105 13.9141C62.2129 14.5391 62.1641 15.1055 62.1641 15.6133C62.1641 16.1211 62.1836 16.541 62.2227 16.873C62.2812 17.2832 62.3594 17.6348 62.457 17.9277C62.5742 18.2207 62.7402 18.5527 62.9551 18.9238C63.1309 19.2559 63.3652 19.6465 63.6582 20.0957C63.9512 20.5449 64.3223 21.043 64.7715 21.5898C64.3223 21.4727 63.873 21.3945 63.4238 21.3555C62.9746 21.2969 62.5645 21.2578 62.1934 21.2383C61.7637 21.2188 61.3535 21.2285 60.9629 21.2676C60.5527 21.3066 60.0742 21.3652 59.5273 21.4434C59.0586 21.5215 58.4824 21.6191 57.7988 21.7363C57.1152 21.8535 56.334 22 55.4551 22.1758C55.8848 21.9219 56.2266 21.6484 56.4805 21.3555C56.7344 21.0625 56.9395 20.7793 57.0957 20.5059C57.2715 20.1934 57.3887 19.8906 57.4473 19.5977C57.4863 19.3438 57.5156 18.7969 57.5352 17.957C57.5742 17.1172 57.5938 16.1406 57.5938 15.0273C57.6133 13.8945 57.6133 12.7031 57.5938 11.4531C57.5742 10.2031 57.5547 9.03125 57.5352 7.9375C57.5156 6.84375 57.4863 5.91602 57.4473 5.1543C57.4277 4.37305 57.4082 3.89453 57.3887 3.71875C57.3301 3.44531 57.252 3.15234 57.1543 2.83984C57.0566 2.56641 56.9199 2.2832 56.7441 1.99023C56.5879 1.67773 56.3828 1.375 56.1289 1.08203ZM125.075 22.277C124.372 22.277 123.768 22.0284 123.264 21.5312C122.767 21.027 122.518 20.4233 122.518 19.7202C122.518 19.0241 122.767 18.4276 123.264 17.9304C123.768 17.4332 124.372 17.1847 125.075 17.1847C125.757 17.1847 126.354 17.4332 126.865 17.9304C127.376 18.4276 127.632 19.0241 127.632 19.7202C127.632 20.1889 127.511 20.6186 127.27 21.0092C127.035 21.3928 126.726 21.7017 126.343 21.9361C125.959 22.1634 125.537 22.277 125.075 22.277Z" fill="#F25C2A"/>
</svg>
