<svg width="66" height="66" viewBox="0 0 66 66" fill="none" xmlns="http://www.w3.org/2000/svg">
<path d="M42.7085 26.6659C45.1247 26.6659 47.0835 24.7072 47.0835 22.2909C47.0835 19.8747 45.1247 17.9159 42.7085 17.9159C40.2923 17.9159 38.3335 19.8747 38.3335 22.2909C38.3335 24.7072 40.2923 26.6659 42.7085 26.6659Z" fill="#F25C2A"/>
<path d="M45.6248 30.1667V39.0333C45.6248 39.2375 45.6103 39.4417 45.5957 39.6313C45.5811 39.8062 45.5665 39.9667 45.5373 40.1417C45.5228 40.3167 45.4936 40.4917 45.4644 40.6521C44.954 44.1813 42.7082 46.4125 39.1936 46.9229C39.0332 46.9521 38.8582 46.9813 38.6832 46.9958C38.5082 47.025 38.3478 47.0396 38.1728 47.0542C37.9832 47.0688 37.779 47.0833 37.5748 47.0833H25.9665C25.7623 47.0833 25.5582 47.0688 25.3686 47.0542C25.1936 47.0396 25.0332 47.025 24.8582 46.9958C24.6832 46.9813 24.5082 46.9521 24.3478 46.9229C20.8332 46.4125 18.5873 44.1813 18.0769 40.6521C18.0478 40.4917 18.0186 40.3167 18.004 40.1417C17.9748 39.9667 17.9603 39.8062 17.9457 39.6313C17.9311 39.4417 17.9165 39.2375 17.9165 39.0333V27.425C17.9165 27.2208 17.9311 27.0167 17.9457 26.8271C17.9603 26.6521 17.9748 26.4917 18.004 26.3167C18.0186 26.1417 18.0478 25.9667 18.0769 25.8063C18.5873 22.2771 20.8332 20.0458 24.3478 19.5354C24.5082 19.5062 24.6832 19.4771 24.8582 19.4625C25.0332 19.4333 25.1936 19.4187 25.3686 19.4042C25.5582 19.3896 25.7623 19.375 25.9665 19.375H34.8332C35.7665 19.375 36.4373 20.2208 36.2623 21.125C36.2623 21.1542 36.2478 21.1833 36.2478 21.2125C36.2186 21.3583 36.204 21.5042 36.1748 21.6646C36.1165 22.2771 36.1457 22.9333 36.2769 23.6042C36.3207 23.7792 36.3498 23.925 36.4082 24.0854C36.5248 24.5667 36.7144 25.0187 36.9623 25.4417C37.0498 25.6167 37.1665 25.7917 37.2686 25.9521C37.7498 26.6521 38.3478 27.25 39.0478 27.7312C39.2082 27.8333 39.3832 27.95 39.5582 28.0375C39.9811 28.2854 40.4332 28.475 40.9144 28.5917C41.0748 28.65 41.2207 28.6792 41.3957 28.7229C42.0665 28.8542 42.7228 28.8833 43.3353 28.825C43.4957 28.7958 43.6415 28.7813 43.7873 28.7521C43.8165 28.7521 43.8457 28.7375 43.8748 28.7375C44.779 28.5625 45.6248 29.2333 45.6248 30.1667Z" fill="currentColor"/>
<circle cx="33" cy="33" r="31.5" stroke="#D9D9D9" stroke-width="3"/>
</svg>
