<svg width="32" height="32" viewBox="0 0 32 32" fill="none" xmlns="http://www.w3.org/2000/svg">
<path d="M12.72 22.2265C12.1734 22.2265 11.72 21.7731 11.72 21.2265V16.7065L11.4667 16.9998C11.0934 17.4131 10.4667 17.4398 10.0534 17.0798C9.64003 16.7065 9.61336 16.0798 9.97336 15.6665L11.9734 13.4398C12.2534 13.1331 12.6934 13.0265 13.08 13.1731C13.4667 13.3198 13.72 13.6931 13.72 14.1065V21.2398C13.72 21.7865 13.28 22.2265 12.72 22.2265Z" fill="#9E9E9E"/>
<path d="M16.0002 4.63965C15.8935 4.63965 15.7868 4.65298 15.6802 4.65298L16.7735 3.29298C17.1202 2.86632 17.0535 2.22632 16.6135 1.89298C16.1868 1.54632 15.5602 1.61298 15.2135 2.05298L12.5868 5.33298C12.5735 5.34632 12.5735 5.35965 12.5602 5.38632C12.5202 5.43965 12.4935 5.50632 12.4668 5.55965C12.4402 5.62632 12.4135 5.67965 12.4002 5.73298C12.3868 5.79965 12.3868 5.85298 12.3868 5.91965C12.3868 5.98632 12.3868 6.05298 12.3868 6.11965C12.3868 6.14632 12.3868 6.15965 12.3868 6.18632C12.4002 6.22632 12.4268 6.25298 12.4402 6.30632C12.4668 6.37298 12.4802 6.42632 12.5202 6.47965C12.5602 6.53298 12.6002 6.58632 12.6535 6.63965C12.6802 6.66632 12.7068 6.70632 12.7335 6.73298C12.7468 6.74632 12.7735 6.74632 12.7868 6.75965C12.8268 6.78632 12.8668 6.81298 12.9202 6.82632C12.9868 6.86632 13.0535 6.89298 13.1202 6.90632C13.1735 6.93298 13.2135 6.93298 13.2668 6.93298C13.3068 6.93298 13.3335 6.94632 13.3735 6.94632C13.4002 6.94632 13.4402 6.93298 13.4668 6.91965C13.5068 6.91965 13.5468 6.91965 13.6002 6.91965C14.4535 6.71965 15.2535 6.62632 16.0135 6.62632C22.0002 6.62632 26.8668 11.493 26.8668 17.4797C26.8668 23.4663 22.0002 28.333 16.0135 28.333C10.0268 28.333 5.16016 23.4663 5.16016 17.4797C5.16016 15.1596 5.92016 12.9197 7.36016 10.9997C7.69349 10.5596 7.60016 9.93298 7.16016 9.59965C6.72016 9.26632 6.09349 9.35965 5.76016 9.79965C4.05349 12.0663 3.16016 14.7197 3.16016 17.4797C3.16016 24.5597 8.92016 30.333 16.0135 30.333C23.1068 30.333 28.8668 24.573 28.8668 17.4797C28.8668 10.3863 23.0802 4.63965 16.0002 4.63965Z" fill="#9E9E9E"/>
<path d="M18.6667 22.2271C16.64 22.2271 15 20.5871 15 18.5604V16.7604C15 14.7338 16.64 13.0938 18.6667 13.0938C20.6933 13.0938 22.3333 14.7338 22.3333 16.7604V18.5604C22.3333 20.5871 20.6933 22.2271 18.6667 22.2271ZM18.6667 15.1071C17.7467 15.1071 17 15.8538 17 16.7738V18.5738C17 19.4938 17.7467 20.2404 18.6667 20.2404C19.5867 20.2404 20.3333 19.4938 20.3333 18.5738V16.7738C20.3333 15.8538 19.5867 15.1071 18.6667 15.1071Z" fill="#9E9E9E"/>
</svg>
